<svg xmlns="http://www.w3.org/2000/svg" xmlns:xlink="http://www.w3.org/1999/xlink" viewBox="0,0,256,256" width="68px" height="68px" fill-rule="nonzero"><g fill-opacity="0" fill="#dddddd" fill-rule="nonzero" stroke="none" stroke-width="1" stroke-linecap="butt" stroke-linejoin="miter" stroke-miterlimit="10" stroke-dasharray="" stroke-dashoffset="0" font-family="none" font-weight="none" font-size="none" text-anchor="none" style="mix-blend-mode: normal"><path d="M0,256v-256h256v256z" id="bgRectangle"></path></g><g fill="#ffffff" fill-rule="nonzero" stroke="none" stroke-width="1" stroke-linecap="butt" stroke-linejoin="miter" stroke-miterlimit="10" stroke-dasharray="" stroke-dashoffset="0" font-family="none" font-weight="none" font-size="none" text-anchor="none" style="mix-blend-mode: normal"><g transform="scale(8,8)"><path d="M16,3c-7.18,0 -13,5.82 -13,13c0,7.18 5.82,13 13,13c7.18,0 13,-5.82 13,-13c0,-7.18 -5.82,-13 -13,-13zM16,5c6.065,0 11,4.935 11,11c0,6.065 -4.935,11 -11,11c-6.065,0 -11,-4.935 -11,-11c0,-6.065 4.935,-11 11,-11zM24.25195,11.62891c-0.273,0.00025 -0.54777,0.01216 -0.63477,0.03516l-0.13477,0.03516l0.03516,1.75c0.019,0.963 0.05036,2.0443 0.06836,2.4043l0.03125,0.65625h1.26953l0.03516,-1.78711c0.02,-0.983 0.04945,-2.06625 0.06445,-2.40625c0.027,-0.601 0.02348,-0.6203 -0.10352,-0.6543c-0.086,-0.023 -0.35786,-0.03345 -0.63086,-0.0332zM9.30273,13.60547c-0.358,0.01975 -0.70642,0.08169 -0.91992,0.17969c-1.038,0.476 -1.56722,1.69487 -1.32422,3.04688c0.192,1.071 0.76889,1.73647 1.71289,1.98047c0.406,0.105 1.28908,0.05344 1.70508,-0.10156c0.655,-0.242 1.21981,-0.94661 1.38281,-1.72461c0.104,-0.495 0.04281,-1.47472 -0.11719,-1.88672c-0.281,-0.724 -0.79989,-1.22697 -1.46289,-1.41797c-0.2505,-0.072 -0.61856,-0.09592 -0.97656,-0.07617zM14.48828,13.60938c-0.499,0.049 -1.03634,0.32053 -1.27734,0.64453c-0.217,0.292 -0.32249,0.72152 -0.27149,1.10352c0.089,0.669 0.40461,0.94244 1.47461,1.27344c0.686,0.212 0.84961,0.33381 0.84961,0.63281c0,0.264 -0.16878,0.4273 -0.55078,0.5293c-0.281,0.076 -0.88283,0.0322 -1.29883,-0.0918c-0.157,-0.047 -0.30798,-0.07069 -0.33398,-0.05469c-0.047,0.029 -0.18295,0.46755 -0.25195,0.81055c-0.036,0.177 -0.03472,0.17839 0.36328,0.27539c0.22,0.054 0.46392,0.10905 0.54492,0.12305c0.08,0.015 0.41233,0.01881 0.73633,0.00781c0.924,-0.03 1.56383,-0.3322 1.92383,-0.9082c0.287,-0.459 0.28886,-1.16956 0.00586,-1.60156c-0.206,-0.315 -0.43328,-0.45464 -1.11328,-0.68164c-0.886,-0.295 -0.96484,-0.34533 -0.96484,-0.61133c0,-0.333 0.15102,-0.43599 0.66601,-0.45899c0.286,-0.012 0.54741,0.0158 0.81641,0.0918l0.39453,0.11133l0.08984,-0.26953c0.05,-0.147 0.09747,-0.36723 0.10547,-0.49023c0.014,-0.218 0.008,-0.22669 -0.25,-0.30469c-0.368,-0.112 -1.1882,-0.17686 -1.6582,-0.13086zM17.66602,13.66016l0.01758,1.875l0.01758,1.87305l0.16992,0.36523c0.279,0.599 0.76828,0.94559 1.48828,1.05859c0.539,0.084 1.62333,0.02772 2.23633,-0.11328l0.54297,-0.12695v-1.89844c0,-1.044 -0.01806,-2.15284 -0.03906,-2.46484l-0.03711,-0.56836h-1.27539l-0.00195,1.17774c-0.001,1.262 -0.05366,2.84263 -0.09766,2.89062c-0.015,0.016 -0.24381,0.0293 -0.50781,0.0293c-0.579,0 -0.82981,-0.11584 -1.00781,-0.46484c-0.108,-0.213 -0.11972,-0.36764 -0.13672,-1.93164l-0.01758,-1.70117zM9.44336,14.64844c0.449,0 0.69877,0.14105 0.88477,0.49805c0.123,0.237 0.14897,0.37992 0.16797,0.91992c0.035,0.994 -0.12503,1.45936 -0.58203,1.69336c-0.092,0.047 -0.30942,0.08494 -0.48242,0.08594c-0.385,0 -0.65227,-0.15642 -0.82227,-0.48242c-0.171,-0.328 -0.25178,-1.04317 -0.17578,-1.57617c0.114,-0.806 0.40977,-1.13867 1.00977,-1.13867zM24.26367,17.32227c-0.477,0 -0.65798,0.02203 -0.70898,0.08203c-0.045,0.053 -0.06178,0.29594 -0.05078,0.71094l0.01563,0.62891l0.17578,0.04102c0.225,0.052 1.18805,0.02675 1.24805,-0.03125c0.057,-0.057 0.05895,-1.19112 0.00195,-1.32812c-0.036,-0.088 -0.12664,-0.10352 -0.68164,-0.10352z"></path></g></g></svg>